<?xml version="1.0" standalone="no"?>
<svg xmlns:xlink="http://www.w3.org/1999/xlink" id="mermaid-1649753905845" width="1099.109375" xmlns="http://www.w3.org/2000/svg" height="355.5" viewBox="-141.109375 -18.5 1099.109375 355.5"><style>#mermaid-1649753905845 {font-family:"trebuchet ms",verdana,arial,sans-serif;font-size:16px;fill:#333;}#mermaid-1649753905845 .error-icon{fill:#552222;}#mermaid-1649753905845 .error-text{fill:#552222;stroke:#552222;}#mermaid-1649753905845 .edge-thickness-normal{stroke-width:2px;}#mermaid-1649753905845 .edge-thickness-thick{stroke-width:3.5px;}#mermaid-1649753905845 .edge-pattern-solid{stroke-dasharray:0;}#mermaid-1649753905845 .edge-pattern-dashed{stroke-dasharray:3;}#mermaid-1649753905845 .edge-pattern-dotted{stroke-dasharray:2;}#mermaid-1649753905845 .marker{fill:#333333;stroke:#333333;}#mermaid-1649753905845 .marker.cross{stroke:#333333;}#mermaid-1649753905845 svg{font-family:"trebuchet ms",verdana,arial,sans-serif;font-size:16px;}#mermaid-1649753905845 .commit-id,#mermaid-1649753905845 .commit-msg,#mermaid-1649753905845 .branch-label{fill:lightgrey;color:lightgrey;font-family:'trebuchet ms',verdana,arial,sans-serif;font-family:var(--mermaid-font-family);}#mermaid-1649753905845 .branch-label0{fill:#ffffff;}#mermaid-1649753905845 .commit0{stroke:hsl(240, 100%, 46.2745098039%);fill:hsl(240, 100%, 46.2745098039%);}#mermaid-1649753905845 .commit-highlight0{stroke:hsl(60, 100%, 3.7254901961%);fill:hsl(60, 100%, 3.7254901961%);}#mermaid-1649753905845 .label0{fill:hsl(240, 100%, 46.2745098039%);}#mermaid-1649753905845 .arrow0{stroke:hsl(240, 100%, 46.2745098039%);}#mermaid-1649753905845 .branch-label1{fill:black;}#mermaid-1649753905845 .commit1{stroke:hsl(60, 100%, 43.5294117647%);fill:hsl(60, 100%, 43.5294117647%);}#mermaid-1649753905845 .commit-highlight1{stroke:rgb(0, 0, 160.5);fill:rgb(0, 0, 160.5);}#mermaid-1649753905845 .label1{fill:hsl(60, 100%, 43.5294117647%);}#mermaid-1649753905845 .arrow1{stroke:hsl(60, 100%, 43.5294117647%);}#mermaid-1649753905845 .branch-label2{fill:black;}#mermaid-1649753905845 .commit2{stroke:hsl(80, 100%, 46.2745098039%);fill:hsl(80, 100%, 46.2745098039%);}#mermaid-1649753905845 .commit-highlight2{stroke:rgb(48.8333333334, 0, 146.5000000001);fill:rgb(48.8333333334, 0, 146.5000000001);}#mermaid-1649753905845 .label2{fill:hsl(80, 100%, 46.2745098039%);}#mermaid-1649753905845 .arrow2{stroke:hsl(80, 100%, 46.2745098039%);}#mermaid-1649753905845 .branch-label3{fill:#ffffff;}#mermaid-1649753905845 .commit3{stroke:hsl(210, 100%, 46.2745098039%);fill:hsl(210, 100%, 46.2745098039%);}#mermaid-1649753905845 .commit-highlight3{stroke:rgb(146.5000000001, 73.2500000001, 0);fill:rgb(146.5000000001, 73.2500000001, 0);}#mermaid-1649753905845 .label3{fill:hsl(210, 100%, 46.2745098039%);}#mermaid-1649753905845 .arrow3{stroke:hsl(210, 100%, 46.2745098039%);}#mermaid-1649753905845 .branch-label4{fill:black;}#mermaid-1649753905845 .commit4{stroke:hsl(180, 100%, 46.2745098039%);fill:hsl(180, 100%, 46.2745098039%);}#mermaid-1649753905845 .commit-highlight4{stroke:rgb(146.5000000001, 0, 0);fill:rgb(146.5000000001, 0, 0);}#mermaid-1649753905845 .label4{fill:hsl(180, 100%, 46.2745098039%);}#mermaid-1649753905845 .arrow4{stroke:hsl(180, 100%, 46.2745098039%);}#mermaid-1649753905845 .branch-label5{fill:black;}#mermaid-1649753905845 .commit5{stroke:hsl(150, 100%, 46.2745098039%);fill:hsl(150, 100%, 46.2745098039%);}#mermaid-1649753905845 .commit-highlight5{stroke:rgb(146.5000000001, 0, 73.2500000001);fill:rgb(146.5000000001, 0, 73.2500000001);}#mermaid-1649753905845 .label5{fill:hsl(150, 100%, 46.2745098039%);}#mermaid-1649753905845 .arrow5{stroke:hsl(150, 100%, 46.2745098039%);}#mermaid-1649753905845 .branch-label6{fill:black;}#mermaid-1649753905845 .commit6{stroke:hsl(300, 100%, 46.2745098039%);fill:hsl(300, 100%, 46.2745098039%);}#mermaid-1649753905845 .commit-highlight6{stroke:rgb(0, 146.5000000001, 0);fill:rgb(0, 146.5000000001, 0);}#mermaid-1649753905845 .label6{fill:hsl(300, 100%, 46.2745098039%);}#mermaid-1649753905845 .arrow6{stroke:hsl(300, 100%, 46.2745098039%);}#mermaid-1649753905845 .branch-label7{fill:black;}#mermaid-1649753905845 .commit7{stroke:hsl(0, 100%, 46.2745098039%);fill:hsl(0, 100%, 46.2745098039%);}#mermaid-1649753905845 .commit-highlight7{stroke:rgb(0, 146.5000000001, 146.5000000001);fill:rgb(0, 146.5000000001, 146.5000000001);}#mermaid-1649753905845 .label7{fill:hsl(0, 100%, 46.2745098039%);}#mermaid-1649753905845 .arrow7{stroke:hsl(0, 100%, 46.2745098039%);}#mermaid-1649753905845 .branch{stroke-width:1;stroke:#333333;stroke-dasharray:2;}#mermaid-1649753905845 .commit-label{font-size:10px;fill:#000021;}#mermaid-1649753905845 .commit-label-bkg{font-size:10px;fill:#ffffde;opacity:0.5;}#mermaid-1649753905845 .tag-label{font-size:10px;fill:#131300;}#mermaid-1649753905845 .tag-label-bkg{fill:#ECECFF;stroke:hsl(240, 60%, 86.2745098039%);}#mermaid-1649753905845 .tag-hole{fill:#333;}#mermaid-1649753905845 .commit-merge{stroke:#ECECFF;fill:#ECECFF;}#mermaid-1649753905845 .commit-reverse{stroke:#ECECFF;fill:#ECECFF;stroke-width:3;}#mermaid-1649753905845 .commit-highlight-inner{stroke:#ECECFF;fill:#ECECFF;}#mermaid-1649753905845 .arrow{stroke-width:8;stroke-linecap:round;fill:none;}:root{--mermaid-font-family:"trebuchet ms",verdana,arial,sans-serif;}</style><g/><g class="commit-bullets"/><g class="commit-labels"/><g><line x1="0" y1="0" x2="950" y2="0" class="branch branch0"/><rect class="branchLabelBkg label0" rx="4" ry="4" x="-38.9921875" y="-1.25" width="52.9921875" height="22.5" transform="translate(-19, -9.25)"/><g class="branchLabel"><g class="label branch-label0" transform="translate(-48.9921875, -10.25)"><text><tspan xml:space="preserve" dy="1em" x="0" class="row">main</tspan></text></g></g><line x1="0" y1="50" x2="950" y2="50" class="branch branch1"/><rect class="branchLabelBkg label1" rx="4" ry="4" x="-108.28125" y="-1.25" width="122.28125" height="22.5" transform="translate(-19, 40.75)"/><g class="branchLabel"><g class="label branch-label1" transform="translate(-118.28125, 39.75)"><text><tspan xml:space="preserve" dy="1em" x="0" class="row">staging/mantis</tspan></text></g></g><line x1="0" y1="100" x2="950" y2="100" class="branch branch2"/><rect class="branchLabelBkg label2" rx="4" ry="4" x="-96.7265625" y="-1.25" width="110.7265625" height="22.5" transform="translate(-19, 90.75)"/><g class="branchLabel"><g class="label branch-label2" transform="translate(-106.7265625, 89.75)"><text><tspan xml:space="preserve" dy="1em" x="0" class="row">staging/viper</tspan></text></g></g><line x1="0" y1="150" x2="950" y2="150" class="branch branch3"/><rect class="branchLabelBkg label3" rx="4" ry="4" x="-114.109375" y="-1.25" width="128.109375" height="22.5" transform="translate(-19, 140.75)"/><g class="branchLabel"><g class="label branch-label3" transform="translate(-124.109375, 139.75)"><text><tspan xml:space="preserve" dy="1em" x="0" class="row">develop/mantis</tspan></text></g></g><line x1="0" y1="200" x2="950" y2="200" class="branch branch4"/><rect class="branchLabelBkg label4" rx="4" ry="4" x="-53.5703125" y="-1.25" width="67.5703125" height="22.5" transform="translate(-19, 190.75)"/><g class="branchLabel"><g class="label branch-label4" transform="translate(-63.5703125, 189.75)"><text><tspan xml:space="preserve" dy="1em" x="0" class="row">feat/f1</tspan></text></g></g><line x1="0" y1="250" x2="950" y2="250" class="branch branch5"/><rect class="branchLabelBkg label5" rx="4" ry="4" x="-53.5703125" y="-1.25" width="67.5703125" height="22.5" transform="translate(-19, 240.75)"/><g class="branchLabel"><g class="label branch-label5" transform="translate(-63.5703125, 239.75)"><text><tspan xml:space="preserve" dy="1em" x="0" class="row">feat/f2</tspan></text></g></g><line x1="0" y1="300" x2="950" y2="300" class="branch branch6"/><rect class="branchLabelBkg label6" rx="4" ry="4" x="-45.671875" y="-1.25" width="59.671875" height="22.5" transform="translate(-19, 290.75)"/><g class="branchLabel"><g class="label branch-label6" transform="translate(-55.671875, 289.75)"><text><tspan xml:space="preserve" dy="1em" x="0" class="row">fix/b1</tspan></text></g></g></g><g class="commit-arrows"><path d="M 10 0 L 10 30 A 20 20, 0, 0, 0, 30 50 L 60 50" class="arrow arrow1"/><path d="M 10 0 L 10 80 A 20 20, 0, 0, 0, 30 100 L 110 100" class="arrow arrow2"/><path d="M 60 50 L 60 130 A 20 20, 0, 0, 0, 80 150 L 160 150" class="arrow arrow3"/><path d="M 160 150 L 160 180 A 20 20, 0, 0, 0, 180 200 L 210 200" class="arrow arrow4"/><path d="M 160 150 L 160 230 A 20 20, 0, 0, 0, 180 250 L 260 250" class="arrow arrow5"/><path d="M 160 150 L 160 280 A 20 20, 0, 0, 0, 180 300 L 310 300" class="arrow arrow6"/><path d="M 160 150 L 160 150  160 150 L 360 150" class="arrow arrow3"/><path d="M 310 300 L 340 300 A 20 20, 0, 0, 0, 360 280 L 360 150" class="arrow arrow6"/><path d="M 210 200 L 210 200  210 200 L 410 200" class="arrow arrow4"/><path d="M 360 150 L 360 180 A 20 20, 0, 0, 0, 380 200 L 410 200" class="arrow arrow4"/><path d="M 360 150 L 360 150  360 150 L 460 150" class="arrow arrow3"/><path d="M 410 200 L 440 200 A 20 20, 0, 0, 0, 460 180 L 460 150" class="arrow arrow4"/><path d="M 110 100 L 110 100  110 100 L 510 100" class="arrow arrow2"/><path d="M 10 0 L 10 0  10 0 L 560 0" class="arrow arrow0"/><path d="M 510 100 L 540 100 A 20 20, 0, 0, 0, 560 80 L 560 0" class="arrow arrow2"/><path d="M 60 50 L 60 50  60 50 L 610 50" class="arrow arrow1"/><path d="M 560 0 L 560 30 A 20 20, 0, 0, 0, 580 50 L 610 50" class="arrow arrow1"/><path d="M 460 150 L 460 150  460 150 L 660 150" class="arrow arrow3"/><path d="M 610 50 L 610 130 A 20 20, 0, 0, 0, 630 150 L 660 150" class="arrow arrow3"/><path d="M 260 250 L 260 250  260 250 L 710 250" class="arrow arrow5"/><path d="M 660 150 L 660 230 A 20 20, 0, 0, 0, 680 250 L 710 250" class="arrow arrow5"/><path d="M 660 150 L 660 150  660 150 L 760 150" class="arrow arrow3"/><path d="M 710 250 L 740 250 A 20 20, 0, 0, 0, 760 230 L 760 150" class="arrow arrow5"/><path d="M 610 50 L 610 50  610 50 L 810 50" class="arrow arrow1"/><path d="M 760 150 L 790 150 A 20 20, 0, 0, 0, 810 130 L 810 50" class="arrow arrow3"/><path d="M 560 0 L 560 0  560 0 L 860 0" class="arrow arrow0"/><path d="M 810 50 L 840 50 A 20 20, 0, 0, 0, 860 30 L 860 0" class="arrow arrow1"/><path d="M 510 100 L 510 100  510 100 L 910 100" class="arrow arrow2"/><path d="M 860 0 L 860 80 A 20 20, 0, 0, 0, 880 100 L 910 100" class="arrow arrow2"/></g><g class="commit-bullets"><circle cx="10" cy="0" r="10" class="commit oc1 commit0"/><circle cx="60" cy="50" r="10" class="commit oc1-master-staging/mantis commit1"/><circle cx="110" cy="100" r="10" class="commit oc1-master-staging/viper commit2"/><circle cx="160" cy="150" r="10" class="commit oc1-staging/mantis commit3"/><circle cx="210" cy="200" r="10" class="commit c1 commit4"/><circle cx="260" cy="250" r="10" class="commit c2 commit5"/><circle cx="310" cy="300" r="10" class="commit c3 commit6"/><circle cx="360" cy="150" r="9" class="commit 7-4661499 commit3"/><circle cx="360" cy="150" r="6" class="commit commit-merge 7-4661499 commit3"/><circle cx="410" cy="200" r="9" class="commit 8-37e8db5 commit4"/><circle cx="410" cy="200" r="6" class="commit commit-merge 8-37e8db5 commit4"/><circle cx="460" cy="150" r="9" class="commit 9-727d0ff commit3"/><circle cx="460" cy="150" r="6" class="commit commit-merge 9-727d0ff commit3"/><circle cx="510" cy="100" r="10" class="commit b2-and-b3-fixes commit2"/><circle cx="560" cy="0" r="9" class="commit 11-d32ee15 commit0"/><circle cx="560" cy="0" r="6" class="commit commit-merge 11-d32ee15 commit0"/><circle cx="610" cy="50" r="9" class="commit 12-e9788cf commit1"/><circle cx="610" cy="50" r="6" class="commit commit-merge 12-e9788cf commit1"/><circle cx="660" cy="150" r="9" class="commit 13-97a59c4 commit3"/><circle cx="660" cy="150" r="6" class="commit commit-merge 13-97a59c4 commit3"/><circle cx="710" cy="250" r="9" class="commit 14-1a52d1f commit5"/><circle cx="710" cy="250" r="6" class="commit commit-merge 14-1a52d1f commit5"/><circle cx="760" cy="150" r="9" class="commit 15-385d47f commit3"/><circle cx="760" cy="150" r="6" class="commit commit-merge 15-385d47f commit3"/><circle cx="810" cy="50" r="9" class="commit 16-da021c8 commit1"/><circle cx="810" cy="50" r="6" class="commit commit-merge 16-da021c8 commit1"/><circle cx="860" cy="0" r="9" class="commit 17-6a4d067 commit0"/><circle cx="860" cy="0" r="6" class="commit commit-merge 17-6a4d067 commit0"/><circle cx="910" cy="100" r="9" class="commit 18-7839332 commit2"/><circle cx="910" cy="100" r="6" class="commit commit-merge 18-7839332 commit2"/></g><g class="commit-labels"><rect class="commit-label-bkg" x="0.21875" y="13.5" width="19.5625" height="15.5"/><text x="2.21875" y="25" class="commit-label">oc1</text><rect class="commit-label-bkg" x="-2.28125" y="63.5" width="124.5625" height="15.55078125"/><text x="-0.28125" y="75" class="commit-label">oc1-master-staging/mantis</text><rect class="commit-label-bkg" x="51.328125" y="113.5" width="117.34375" height="15.55078125"/><text x="53.328125" y="125" class="commit-label">oc1-master-staging/viper</text><rect class="commit-label-bkg" x="115.0078125" y="163.5" width="89.984375" height="15.55078125"/><text x="117.0078125" y="175" class="commit-label">oc1-staging/mantis</text><rect class="commit-label-bkg" x="202.90234375" y="213.5" width="14.1953125" height="15.5"/><text x="204.90234375" y="225" class="commit-label">c1</text><rect class="commit-label-bkg" x="252.90234375" y="263.5" width="14.1953125" height="15.5"/><text x="254.90234375" y="275" class="commit-label">c2</text><rect class="commit-label-bkg" x="302.90234375" y="313.5" width="14.1953125" height="15.5"/><text x="304.90234375" y="325" class="commit-label">c3</text><rect class="commit-label-bkg" x="473" y="113.5" width="74" height="15.5"/><text x="475" y="125" class="commit-label">b2-and-b3-fixes</text></g></svg>