<?xml version="1.0" standalone="no"?>
<svg xmlns:xlink="http://www.w3.org/1999/xlink" id="mermaid-1649754826010" width="1143.28125" xmlns="http://www.w3.org/2000/svg" height="355.5" viewBox="-135.28125 -18.5 1143.28125 355.5"><style>#mermaid-1649754826010 {font-family:"trebuchet ms",verdana,arial,sans-serif;font-size:16px;fill:#333;}#mermaid-1649754826010 .error-icon{fill:#552222;}#mermaid-1649754826010 .error-text{fill:#552222;stroke:#552222;}#mermaid-1649754826010 .edge-thickness-normal{stroke-width:2px;}#mermaid-1649754826010 .edge-thickness-thick{stroke-width:3.5px;}#mermaid-1649754826010 .edge-pattern-solid{stroke-dasharray:0;}#mermaid-1649754826010 .edge-pattern-dashed{stroke-dasharray:3;}#mermaid-1649754826010 .edge-pattern-dotted{stroke-dasharray:2;}#mermaid-1649754826010 .marker{fill:#333333;stroke:#333333;}#mermaid-1649754826010 .marker.cross{stroke:#333333;}#mermaid-1649754826010 svg{font-family:"trebuchet ms",verdana,arial,sans-serif;font-size:16px;}#mermaid-1649754826010 .commit-id,#mermaid-1649754826010 .commit-msg,#mermaid-1649754826010 .branch-label{fill:lightgrey;color:lightgrey;font-family:'trebuchet ms',verdana,arial,sans-serif;font-family:var(--mermaid-font-family);}#mermaid-1649754826010 .branch-label0{fill:#ffffff;}#mermaid-1649754826010 .commit0{stroke:hsl(240, 100%, 46.2745098039%);fill:hsl(240, 100%, 46.2745098039%);}#mermaid-1649754826010 .commit-highlight0{stroke:hsl(60, 100%, 3.7254901961%);fill:hsl(60, 100%, 3.7254901961%);}#mermaid-1649754826010 .label0{fill:hsl(240, 100%, 46.2745098039%);}#mermaid-1649754826010 .arrow0{stroke:hsl(240, 100%, 46.2745098039%);}#mermaid-1649754826010 .branch-label1{fill:black;}#mermaid-1649754826010 .commit1{stroke:hsl(60, 100%, 43.5294117647%);fill:hsl(60, 100%, 43.5294117647%);}#mermaid-1649754826010 .commit-highlight1{stroke:rgb(0, 0, 160.5);fill:rgb(0, 0, 160.5);}#mermaid-1649754826010 .label1{fill:hsl(60, 100%, 43.5294117647%);}#mermaid-1649754826010 .arrow1{stroke:hsl(60, 100%, 43.5294117647%);}#mermaid-1649754826010 .branch-label2{fill:black;}#mermaid-1649754826010 .commit2{stroke:hsl(80, 100%, 46.2745098039%);fill:hsl(80, 100%, 46.2745098039%);}#mermaid-1649754826010 .commit-highlight2{stroke:rgb(48.8333333334, 0, 146.5000000001);fill:rgb(48.8333333334, 0, 146.5000000001);}#mermaid-1649754826010 .label2{fill:hsl(80, 100%, 46.2745098039%);}#mermaid-1649754826010 .arrow2{stroke:hsl(80, 100%, 46.2745098039%);}#mermaid-1649754826010 .branch-label3{fill:#ffffff;}#mermaid-1649754826010 .commit3{stroke:hsl(210, 100%, 46.2745098039%);fill:hsl(210, 100%, 46.2745098039%);}#mermaid-1649754826010 .commit-highlight3{stroke:rgb(146.5000000001, 73.2500000001, 0);fill:rgb(146.5000000001, 73.2500000001, 0);}#mermaid-1649754826010 .label3{fill:hsl(210, 100%, 46.2745098039%);}#mermaid-1649754826010 .arrow3{stroke:hsl(210, 100%, 46.2745098039%);}#mermaid-1649754826010 .branch-label4{fill:black;}#mermaid-1649754826010 .commit4{stroke:hsl(180, 100%, 46.2745098039%);fill:hsl(180, 100%, 46.2745098039%);}#mermaid-1649754826010 .commit-highlight4{stroke:rgb(146.5000000001, 0, 0);fill:rgb(146.5000000001, 0, 0);}#mermaid-1649754826010 .label4{fill:hsl(180, 100%, 46.2745098039%);}#mermaid-1649754826010 .arrow4{stroke:hsl(180, 100%, 46.2745098039%);}#mermaid-1649754826010 .branch-label5{fill:black;}#mermaid-1649754826010 .commit5{stroke:hsl(150, 100%, 46.2745098039%);fill:hsl(150, 100%, 46.2745098039%);}#mermaid-1649754826010 .commit-highlight5{stroke:rgb(146.5000000001, 0, 73.2500000001);fill:rgb(146.5000000001, 0, 73.2500000001);}#mermaid-1649754826010 .label5{fill:hsl(150, 100%, 46.2745098039%);}#mermaid-1649754826010 .arrow5{stroke:hsl(150, 100%, 46.2745098039%);}#mermaid-1649754826010 .branch-label6{fill:black;}#mermaid-1649754826010 .commit6{stroke:hsl(300, 100%, 46.2745098039%);fill:hsl(300, 100%, 46.2745098039%);}#mermaid-1649754826010 .commit-highlight6{stroke:rgb(0, 146.5000000001, 0);fill:rgb(0, 146.5000000001, 0);}#mermaid-1649754826010 .label6{fill:hsl(300, 100%, 46.2745098039%);}#mermaid-1649754826010 .arrow6{stroke:hsl(300, 100%, 46.2745098039%);}#mermaid-1649754826010 .branch-label7{fill:black;}#mermaid-1649754826010 .commit7{stroke:hsl(0, 100%, 46.2745098039%);fill:hsl(0, 100%, 46.2745098039%);}#mermaid-1649754826010 .commit-highlight7{stroke:rgb(0, 146.5000000001, 146.5000000001);fill:rgb(0, 146.5000000001, 146.5000000001);}#mermaid-1649754826010 .label7{fill:hsl(0, 100%, 46.2745098039%);}#mermaid-1649754826010 .arrow7{stroke:hsl(0, 100%, 46.2745098039%);}#mermaid-1649754826010 .branch{stroke-width:1;stroke:#333333;stroke-dasharray:2;}#mermaid-1649754826010 .commit-label{font-size:10px;fill:#000021;}#mermaid-1649754826010 .commit-label-bkg{font-size:10px;fill:#ffffde;opacity:0.5;}#mermaid-1649754826010 .tag-label{font-size:10px;fill:#131300;}#mermaid-1649754826010 .tag-label-bkg{fill:#ECECFF;stroke:hsl(240, 60%, 86.2745098039%);}#mermaid-1649754826010 .tag-hole{fill:#333;}#mermaid-1649754826010 .commit-merge{stroke:#ECECFF;fill:#ECECFF;}#mermaid-1649754826010 .commit-reverse{stroke:#ECECFF;fill:#ECECFF;stroke-width:3;}#mermaid-1649754826010 .commit-highlight-inner{stroke:#ECECFF;fill:#ECECFF;}#mermaid-1649754826010 .arrow{stroke-width:8;stroke-linecap:round;fill:none;}:root{--mermaid-font-family:"trebuchet ms",verdana,arial,sans-serif;}</style><g/><g class="commit-bullets"/><g class="commit-labels"/><g><line x1="0" y1="0" x2="1000" y2="0" class="branch branch0"/><rect class="branchLabelBkg label0" rx="4" ry="4" x="-38.9921875" y="-1.25" width="52.9921875" height="22.5" transform="translate(-19, -9.25)"/><g class="branchLabel"><g class="label branch-label0" transform="translate(-48.9921875, -10.25)"><text><tspan xml:space="preserve" dy="1em" x="0" class="row">main</tspan></text></g></g><line x1="0" y1="50" x2="1000" y2="50" class="branch branch1"/><rect class="branchLabelBkg label1" rx="4" ry="4" x="-108.28125" y="-1.25" width="122.28125" height="22.5" transform="translate(-19, 40.75)"/><g class="branchLabel"><g class="label branch-label1" transform="translate(-118.28125, 39.75)"><text><tspan xml:space="preserve" dy="1em" x="0" class="row">staging/mantis</tspan></text></g></g><line x1="0" y1="100" x2="1000" y2="100" class="branch branch2"/><rect class="branchLabelBkg label2" rx="4" ry="4" x="-96.7265625" y="-1.25" width="110.7265625" height="22.5" transform="translate(-19, 90.75)"/><g class="branchLabel"><g class="label branch-label2" transform="translate(-106.7265625, 89.75)"><text><tspan xml:space="preserve" dy="1em" x="0" class="row">staging/viper</tspan></text></g></g><line x1="0" y1="150" x2="1000" y2="150" class="branch branch3"/><rect class="branchLabelBkg label3" rx="4" ry="4" x="-102.5546875" y="-1.25" width="116.5546875" height="22.5" transform="translate(-19, 140.75)"/><g class="branchLabel"><g class="label branch-label3" transform="translate(-112.5546875, 139.75)"><text><tspan xml:space="preserve" dy="1em" x="0" class="row">develop/viper</tspan></text></g></g><line x1="0" y1="200" x2="1000" y2="200" class="branch branch4"/><rect class="branchLabelBkg label4" rx="4" ry="4" x="-53.5703125" y="-1.25" width="67.5703125" height="22.5" transform="translate(-19, 190.75)"/><g class="branchLabel"><g class="label branch-label4" transform="translate(-63.5703125, 189.75)"><text><tspan xml:space="preserve" dy="1em" x="0" class="row">feat/f3</tspan></text></g></g><line x1="0" y1="250" x2="1000" y2="250" class="branch branch5"/><rect class="branchLabelBkg label5" rx="4" ry="4" x="-45.671875" y="-1.25" width="59.671875" height="22.5" transform="translate(-19, 240.75)"/><g class="branchLabel"><g class="label branch-label5" transform="translate(-55.671875, 239.75)"><text><tspan xml:space="preserve" dy="1em" x="0" class="row">fix/b2</tspan></text></g></g><line x1="0" y1="300" x2="1000" y2="300" class="branch branch6"/><rect class="branchLabelBkg label6" rx="4" ry="4" x="-45.671875" y="-1.25" width="59.671875" height="22.5" transform="translate(-19, 290.75)"/><g class="branchLabel"><g class="label branch-label6" transform="translate(-55.671875, 289.75)"><text><tspan xml:space="preserve" dy="1em" x="0" class="row">fix/b3</tspan></text></g></g></g><g class="commit-arrows"><path d="M 10 0 L 10 30 A 20 20, 0, 0, 0, 30 50 L 60 50" class="arrow arrow1"/><path d="M 10 0 L 10 80 A 20 20, 0, 0, 0, 30 100 L 110 100" class="arrow arrow2"/><path d="M 110 100 L 110 130 A 20 20, 0, 0, 0, 130 150 L 160 150" class="arrow arrow3"/><path d="M 160 150 L 160 180 A 20 20, 0, 0, 0, 180 200 L 210 200" class="arrow arrow4"/><path d="M 160 150 L 160 230 A 20 20, 0, 0, 0, 180 250 L 260 250" class="arrow arrow5"/><path d="M 160 150 L 160 280 A 20 20, 0, 0, 0, 180 300 L 310 300" class="arrow arrow6"/><path d="M 160 150 L 160 150  160 150 L 360 150" class="arrow arrow3"/><path d="M 310 300 L 340 300 A 20 20, 0, 0, 0, 360 280 L 360 150" class="arrow arrow6"/><path d="M 260 250 L 260 250  260 250 L 410 250" class="arrow arrow5"/><path d="M 360 150 L 360 230 A 20 20, 0, 0, 0, 380 250 L 410 250" class="arrow arrow5"/><path d="M 360 150 L 360 150  360 150 L 460 150" class="arrow arrow3"/><path d="M 410 250 L 440 250 A 20 20, 0, 0, 0, 460 230 L 460 150" class="arrow arrow5"/><path d="M 110 100 L 110 100  110 100 L 510 100" class="arrow arrow2"/><path d="M 460 150 L 490 150 A 20 20, 0, 0, 0, 510 130 L 510 100" class="arrow arrow3"/><path d="M 10 0 L 10 0  10 0 L 560 0" class="arrow arrow0"/><path d="M 510 100 L 540 100 A 20 20, 0, 0, 0, 560 80 L 560 0" class="arrow arrow2"/><path d="M 60 50 L 60 50  60 50 L 610 50" class="arrow arrow1"/><path d="M 560 0 L 560 30 A 20 20, 0, 0, 0, 580 50 L 610 50" class="arrow arrow1"/><path d="M 610 50 L 610 50  610 50 L 660 50" class="arrow arrow1"/><path d="M 560 0 L 560 0  560 0 L 710 0" class="arrow arrow0"/><path d="M 660 50 L 690 50 A 20 20, 0, 0, 0, 710 30 L 710 0" class="arrow arrow1"/><path d="M 510 100 L 510 100  510 100 L 760 100" class="arrow arrow2"/><path d="M 710 0 L 710 80 A 20 20, 0, 0, 0, 730 100 L 760 100" class="arrow arrow2"/><path d="M 460 150 L 460 150  460 150 L 810 150" class="arrow arrow3"/><path d="M 760 100 L 760 130 A 20 20, 0, 0, 0, 780 150 L 810 150" class="arrow arrow3"/><path d="M 210 200 L 210 200  210 200 L 860 200" class="arrow arrow4"/><path d="M 810 150 L 810 180 A 20 20, 0, 0, 0, 830 200 L 860 200" class="arrow arrow4"/><path d="M 810 150 L 810 150  810 150 L 910 150" class="arrow arrow3"/><path d="M 860 200 L 890 200 A 20 20, 0, 0, 0, 910 180 L 910 150" class="arrow arrow4"/><path d="M 760 100 L 760 100  760 100 L 960 100" class="arrow arrow2"/><path d="M 910 150 L 940 150 A 20 20, 0, 0, 0, 960 130 L 960 100" class="arrow arrow3"/></g><g class="commit-bullets"><circle cx="10" cy="0" r="10" class="commit oc1 commit0"/><circle cx="60" cy="50" r="10" class="commit oc1-master-staging/mantis commit1"/><circle cx="110" cy="100" r="10" class="commit oc1-master-staging/viper commit2"/><circle cx="160" cy="150" r="10" class="commit oc1-staging/viper commit3"/><circle cx="210" cy="200" r="10" class="commit c4 commit4"/><circle cx="260" cy="250" r="10" class="commit c5 commit5"/><circle cx="310" cy="300" r="10" class="commit c6 commit6"/><circle cx="360" cy="150" r="9" class="commit 7-820ee06 commit3"/><circle cx="360" cy="150" r="6" class="commit commit-merge 7-820ee06 commit3"/><circle cx="410" cy="250" r="9" class="commit 8-4f35f77 commit5"/><circle cx="410" cy="250" r="6" class="commit commit-merge 8-4f35f77 commit5"/><circle cx="460" cy="150" r="9" class="commit 9-2d24c14 commit3"/><circle cx="460" cy="150" r="6" class="commit commit-merge 9-2d24c14 commit3"/><circle cx="510" cy="100" r="9" class="commit 10-53d2653 commit2"/><circle cx="510" cy="100" r="6" class="commit commit-merge 10-53d2653 commit2"/><circle cx="560" cy="0" r="9" class="commit 11-daae048 commit0"/><circle cx="560" cy="0" r="6" class="commit commit-merge 11-daae048 commit0"/><circle cx="610" cy="50" r="9" class="commit 12-29404ba commit1"/><circle cx="610" cy="50" r="6" class="commit commit-merge 12-29404ba commit1"/><circle cx="660" cy="50" r="10" class="commit f1-f2-and-b1-changes commit1"/><circle cx="710" cy="0" r="9" class="commit 14-5d9e3d6 commit0"/><circle cx="710" cy="0" r="6" class="commit commit-merge 14-5d9e3d6 commit0"/><circle cx="760" cy="100" r="9" class="commit 15-2d29deb commit2"/><circle cx="760" cy="100" r="6" class="commit commit-merge 15-2d29deb commit2"/><circle cx="810" cy="150" r="9" class="commit 16-73b3259 commit3"/><circle cx="810" cy="150" r="6" class="commit commit-merge 16-73b3259 commit3"/><circle cx="860" cy="200" r="9" class="commit 17-c4677b7 commit4"/><circle cx="860" cy="200" r="6" class="commit commit-merge 17-c4677b7 commit4"/><circle cx="910" cy="150" r="9" class="commit 18-d352edf commit3"/><circle cx="910" cy="150" r="6" class="commit commit-merge 18-d352edf commit3"/><circle cx="960" cy="100" r="9" class="commit 19-c143c4e commit2"/><circle cx="960" cy="100" r="6" class="commit commit-merge 19-c143c4e commit2"/></g><g class="commit-labels"><rect class="commit-label-bkg" x="0.21875" y="13.5" width="19.5625" height="15.5"/><text x="2.21875" y="25" class="commit-label">oc1</text><rect class="commit-label-bkg" x="-2.28125" y="63.5" width="124.5625" height="15.55078125"/><text x="-0.28125" y="75" class="commit-label">oc1-master-staging/mantis</text><rect class="commit-label-bkg" x="51.328125" y="113.5" width="117.34375" height="15.55078125"/><text x="53.328125" y="125" class="commit-label">oc1-master-staging/viper</text><rect class="commit-label-bkg" x="118.6171875" y="163.5" width="82.765625" height="15.55078125"/><text x="120.6171875" y="175" class="commit-label">oc1-staging/viper</text><rect class="commit-label-bkg" x="202.90234375" y="213.5" width="14.1953125" height="15.5"/><text x="204.90234375" y="225" class="commit-label">c4</text><rect class="commit-label-bkg" x="252.90234375" y="263.5" width="14.1953125" height="15.5"/><text x="254.90234375" y="275" class="commit-label">c5</text><rect class="commit-label-bkg" x="302.90234375" y="313.5" width="14.1953125" height="15.5"/><text x="304.90234375" y="325" class="commit-label">c6</text><rect class="commit-label-bkg" x="610.3359375" y="63.5" width="99.328125" height="15.55078125"/><text x="612.3359375" y="75" class="commit-label">f1-f2-and-b1-changes</text></g></svg>