<?xml version="1.0" standalone="no"?>
<svg xmlns:xlink="http://www.w3.org/1999/xlink" id="mermaid-1649759502690" width="599.109375" xmlns="http://www.w3.org/2000/svg" height="305.5" viewBox="-141.109375 -18.5 599.109375 305.5"><style>#mermaid-1649759502690 {font-family:"trebuchet ms",verdana,arial,sans-serif;font-size:16px;fill:#333;}#mermaid-1649759502690 .error-icon{fill:#552222;}#mermaid-1649759502690 .error-text{fill:#552222;stroke:#552222;}#mermaid-1649759502690 .edge-thickness-normal{stroke-width:2px;}#mermaid-1649759502690 .edge-thickness-thick{stroke-width:3.5px;}#mermaid-1649759502690 .edge-pattern-solid{stroke-dasharray:0;}#mermaid-1649759502690 .edge-pattern-dashed{stroke-dasharray:3;}#mermaid-1649759502690 .edge-pattern-dotted{stroke-dasharray:2;}#mermaid-1649759502690 .marker{fill:#333333;stroke:#333333;}#mermaid-1649759502690 .marker.cross{stroke:#333333;}#mermaid-1649759502690 svg{font-family:"trebuchet ms",verdana,arial,sans-serif;font-size:16px;}#mermaid-1649759502690 .commit-id,#mermaid-1649759502690 .commit-msg,#mermaid-1649759502690 .branch-label{fill:lightgrey;color:lightgrey;font-family:'trebuchet ms',verdana,arial,sans-serif;font-family:var(--mermaid-font-family);}#mermaid-1649759502690 .branch-label0{fill:#ffffff;}#mermaid-1649759502690 .commit0{stroke:hsl(240, 100%, 46.2745098039%);fill:hsl(240, 100%, 46.2745098039%);}#mermaid-1649759502690 .commit-highlight0{stroke:hsl(60, 100%, 3.7254901961%);fill:hsl(60, 100%, 3.7254901961%);}#mermaid-1649759502690 .label0{fill:hsl(240, 100%, 46.2745098039%);}#mermaid-1649759502690 .arrow0{stroke:hsl(240, 100%, 46.2745098039%);}#mermaid-1649759502690 .branch-label1{fill:black;}#mermaid-1649759502690 .commit1{stroke:hsl(60, 100%, 43.5294117647%);fill:hsl(60, 100%, 43.5294117647%);}#mermaid-1649759502690 .commit-highlight1{stroke:rgb(0, 0, 160.5);fill:rgb(0, 0, 160.5);}#mermaid-1649759502690 .label1{fill:hsl(60, 100%, 43.5294117647%);}#mermaid-1649759502690 .arrow1{stroke:hsl(60, 100%, 43.5294117647%);}#mermaid-1649759502690 .branch-label2{fill:black;}#mermaid-1649759502690 .commit2{stroke:hsl(80, 100%, 46.2745098039%);fill:hsl(80, 100%, 46.2745098039%);}#mermaid-1649759502690 .commit-highlight2{stroke:rgb(48.8333333334, 0, 146.5000000001);fill:rgb(48.8333333334, 0, 146.5000000001);}#mermaid-1649759502690 .label2{fill:hsl(80, 100%, 46.2745098039%);}#mermaid-1649759502690 .arrow2{stroke:hsl(80, 100%, 46.2745098039%);}#mermaid-1649759502690 .branch-label3{fill:#ffffff;}#mermaid-1649759502690 .commit3{stroke:hsl(210, 100%, 46.2745098039%);fill:hsl(210, 100%, 46.2745098039%);}#mermaid-1649759502690 .commit-highlight3{stroke:rgb(146.5000000001, 73.2500000001, 0);fill:rgb(146.5000000001, 73.2500000001, 0);}#mermaid-1649759502690 .label3{fill:hsl(210, 100%, 46.2745098039%);}#mermaid-1649759502690 .arrow3{stroke:hsl(210, 100%, 46.2745098039%);}#mermaid-1649759502690 .branch-label4{fill:black;}#mermaid-1649759502690 .commit4{stroke:hsl(180, 100%, 46.2745098039%);fill:hsl(180, 100%, 46.2745098039%);}#mermaid-1649759502690 .commit-highlight4{stroke:rgb(146.5000000001, 0, 0);fill:rgb(146.5000000001, 0, 0);}#mermaid-1649759502690 .label4{fill:hsl(180, 100%, 46.2745098039%);}#mermaid-1649759502690 .arrow4{stroke:hsl(180, 100%, 46.2745098039%);}#mermaid-1649759502690 .branch-label5{fill:black;}#mermaid-1649759502690 .commit5{stroke:hsl(150, 100%, 46.2745098039%);fill:hsl(150, 100%, 46.2745098039%);}#mermaid-1649759502690 .commit-highlight5{stroke:rgb(146.5000000001, 0, 73.2500000001);fill:rgb(146.5000000001, 0, 73.2500000001);}#mermaid-1649759502690 .label5{fill:hsl(150, 100%, 46.2745098039%);}#mermaid-1649759502690 .arrow5{stroke:hsl(150, 100%, 46.2745098039%);}#mermaid-1649759502690 .branch-label6{fill:black;}#mermaid-1649759502690 .commit6{stroke:hsl(300, 100%, 46.2745098039%);fill:hsl(300, 100%, 46.2745098039%);}#mermaid-1649759502690 .commit-highlight6{stroke:rgb(0, 146.5000000001, 0);fill:rgb(0, 146.5000000001, 0);}#mermaid-1649759502690 .label6{fill:hsl(300, 100%, 46.2745098039%);}#mermaid-1649759502690 .arrow6{stroke:hsl(300, 100%, 46.2745098039%);}#mermaid-1649759502690 .branch-label7{fill:black;}#mermaid-1649759502690 .commit7{stroke:hsl(0, 100%, 46.2745098039%);fill:hsl(0, 100%, 46.2745098039%);}#mermaid-1649759502690 .commit-highlight7{stroke:rgb(0, 146.5000000001, 146.5000000001);fill:rgb(0, 146.5000000001, 146.5000000001);}#mermaid-1649759502690 .label7{fill:hsl(0, 100%, 46.2745098039%);}#mermaid-1649759502690 .arrow7{stroke:hsl(0, 100%, 46.2745098039%);}#mermaid-1649759502690 .branch{stroke-width:1;stroke:#333333;stroke-dasharray:2;}#mermaid-1649759502690 .commit-label{font-size:10px;fill:#000021;}#mermaid-1649759502690 .commit-label-bkg{font-size:10px;fill:#ffffde;opacity:0.5;}#mermaid-1649759502690 .tag-label{font-size:10px;fill:#131300;}#mermaid-1649759502690 .tag-label-bkg{fill:#ECECFF;stroke:hsl(240, 60%, 86.2745098039%);}#mermaid-1649759502690 .tag-hole{fill:#333;}#mermaid-1649759502690 .commit-merge{stroke:#ECECFF;fill:#ECECFF;}#mermaid-1649759502690 .commit-reverse{stroke:#ECECFF;fill:#ECECFF;stroke-width:3;}#mermaid-1649759502690 .commit-highlight-inner{stroke:#ECECFF;fill:#ECECFF;}#mermaid-1649759502690 .arrow{stroke-width:8;stroke-linecap:round;fill:none;}:root{--mermaid-font-family:"trebuchet ms",verdana,arial,sans-serif;}</style><g/><g class="commit-bullets"/><g class="commit-labels"/><g><line x1="0" y1="0" x2="450" y2="0" class="branch branch0"/><rect class="branchLabelBkg label0" rx="4" ry="4" x="-38.9921875" y="-1.25" width="52.9921875" height="22.5" transform="translate(-19, -9.25)"/><g class="branchLabel"><g class="label branch-label0" transform="translate(-48.9921875, -10.25)"><text><tspan xml:space="preserve" dy="1em" x="0" class="row">main</tspan></text></g></g><line x1="0" y1="50" x2="450" y2="50" class="branch branch1"/><rect class="branchLabelBkg label1" rx="4" ry="4" x="-108.28125" y="-1.25" width="122.28125" height="22.5" transform="translate(-19, 40.75)"/><g class="branchLabel"><g class="label branch-label1" transform="translate(-118.28125, 39.75)"><text><tspan xml:space="preserve" dy="1em" x="0" class="row">staging/mantis</tspan></text></g></g><line x1="0" y1="100" x2="450" y2="100" class="branch branch2"/><rect class="branchLabelBkg label2" rx="4" ry="4" x="-114.109375" y="-1.25" width="128.109375" height="22.5" transform="translate(-19, 90.75)"/><g class="branchLabel"><g class="label branch-label2" transform="translate(-124.109375, 89.75)"><text><tspan xml:space="preserve" dy="1em" x="0" class="row">develop/mantis</tspan></text></g></g><line x1="0" y1="150" x2="450" y2="150" class="branch branch3"/><rect class="branchLabelBkg label3" rx="4" ry="4" x="-96.7265625" y="-1.25" width="110.7265625" height="22.5" transform="translate(-19, 140.75)"/><g class="branchLabel"><g class="label branch-label3" transform="translate(-106.7265625, 139.75)"><text><tspan xml:space="preserve" dy="1em" x="0" class="row">staging/viper</tspan></text></g></g><line x1="0" y1="200" x2="450" y2="200" class="branch branch4"/><rect class="branchLabelBkg label4" rx="4" ry="4" x="-102.5546875" y="-1.25" width="116.5546875" height="22.5" transform="translate(-19, 190.75)"/><g class="branchLabel"><g class="label branch-label4" transform="translate(-112.5546875, 189.75)"><text><tspan xml:space="preserve" dy="1em" x="0" class="row">develop/viper</tspan></text></g></g><line x1="0" y1="250" x2="450" y2="250" class="branch branch5"/><rect class="branchLabelBkg label5" rx="4" ry="4" x="-51.4140625" y="-1.25" width="65.4140625" height="22.5" transform="translate(-19, 240.75)"/><g class="branchLabel"><g class="label branch-label5" transform="translate(-61.4140625, 239.75)"><text><tspan xml:space="preserve" dy="1em" x="0" class="row">fix/hf1</tspan></text></g></g></g><g class="commit-arrows"><path d="M 10 0 L 10 30 A 20 20, 0, 0, 0, 30 50 L 60 50" class="arrow arrow1"/><path d="M 60 50 L 60 80 A 20 20, 0, 0, 0, 80 100 L 110 100" class="arrow arrow2"/><path d="M 10 0 L 10 130 A 20 20, 0, 0, 0, 30 150 L 160 150" class="arrow arrow3"/><path d="M 160 150 L 160 180 A 20 20, 0, 0, 0, 180 200 L 210 200" class="arrow arrow4"/><path d="M 10 0 L 10 230 A 20 20, 0, 0, 0, 30 250 L 260 250" class="arrow arrow5"/><path d="M 10 0 L 10 0  10 0 L 310 0" class="arrow arrow0"/><path d="M 260 250 L 290 250 A 20 20, 0, 0, 0, 310 230 L 310 0" class="arrow arrow5"/><path d="M 60 50 L 60 50  60 50 L 360 50" class="arrow arrow1"/><path d="M 310 0 L 310 30 A 20 20, 0, 0, 0, 330 50 L 360 50" class="arrow arrow1"/><path d="M 160 150 L 160 150  160 150 L 410 150" class="arrow arrow3"/><path d="M 310 0 L 310 130 A 20 20, 0, 0, 0, 330 150 L 410 150" class="arrow arrow3"/></g><g class="commit-bullets"><circle cx="10" cy="0" r="10" class="commit oc1 commit0"/><circle cx="60" cy="50" r="10" class="commit oc1-master-staging/mantis commit1"/><circle cx="110" cy="100" r="10" class="commit oc1-staging/mantis commit2"/><circle cx="160" cy="150" r="10" class="commit oc1-master-staging/viper commit3"/><circle cx="210" cy="200" r="10" class="commit oc1-staging/viper commit4"/><circle cx="260" cy="250" r="10" class="commit c8 commit5"/><circle cx="310" cy="0" r="9" class="commit 6-e575f13 commit0"/><circle cx="310" cy="0" r="6" class="commit commit-merge 6-e575f13 commit0"/><circle cx="360" cy="50" r="9" class="commit 7-56c0338 commit1"/><circle cx="360" cy="50" r="6" class="commit commit-merge 7-56c0338 commit1"/><circle cx="410" cy="150" r="9" class="commit 8-464662a commit3"/><circle cx="410" cy="150" r="6" class="commit commit-merge 8-464662a commit3"/></g><g class="commit-labels"><rect class="commit-label-bkg" x="0.21875" y="13.5" width="19.5625" height="15.5"/><text x="2.21875" y="25" class="commit-label">oc1</text><rect class="commit-label-bkg" x="-2.28125" y="63.5" width="124.5625" height="15.55078125"/><text x="-0.28125" y="75" class="commit-label">oc1-master-staging/mantis</text><rect class="commit-label-bkg" x="65.0078125" y="113.5" width="89.984375" height="15.55078125"/><text x="67.0078125" y="125" class="commit-label">oc1-staging/mantis</text><rect class="commit-label-bkg" x="101.328125" y="163.5" width="117.34375" height="15.55078125"/><text x="103.328125" y="175" class="commit-label">oc1-master-staging/viper</text><rect class="commit-label-bkg" x="168.6171875" y="213.5" width="82.765625" height="15.55078125"/><text x="170.6171875" y="225" class="commit-label">oc1-staging/viper</text><rect class="commit-label-bkg" x="252.90234375" y="263.5" width="14.1953125" height="15.5"/><text x="254.90234375" y="275" class="commit-label">c8</text></g></svg>